# xmcd
#
# Track frame offsets: 
#        150
#        17317
#        37667
#        47160
#        70250
#        86880
#        106346
#        130519
#        151112
#        166897
#        183747
#        209773
#        239748
#
# Disc length: 3467 seconds
#
# Revision: 0
# Processed by: cddbd v1.5.2PL0 Copyright (c) Steve Scherf et al.
# Submitted via: ExactAudioCopy v1.3
#
DISCID=a80d890d
DTITLE=The Mike Eldred Trio - Baptist Town
DYEAR=2016
DGENRE=Delta Blues
TTITLE0=Hunder Dollar Bill
TTITLE1=Papa Legba
TTITLE2=Somebody Been Runnin'
TTITLE3=Run Devil Run
TTITLE4=Roadside Shrine
TTITLE5=Bess
TTITLE6=Black Annie
TTITLE7=Hoodoo Man
TTITLE8=Sugar Shake
TTITLE9=Kill My Woman
TTITLE10=Baptist Town
TTITLE11=Can't Buy Me Love
TTITLE12=You're Always There
EXTD=
EXTT0=
EXTT1=
EXTT2=
EXTT3=
EXTT4=
EXTT5=
EXTT6=
EXTT7=
EXTT8=
EXTT9=
EXTT10=
EXTT11=
EXTT12=
PLAYORDER=
